<svg id="Layer_1" data-name="Layer 1" xmlns="http://www.w3.org/2000/svg" viewBox="0 0 100 100"><defs><style>.cls-1{fill:#fff;}</style></defs><title>SM Icons 5</title><path class="cls-1" d="M50,2A48,48,0,1,0,98,50,48.05,48.05,0,0,0,50,2ZM81.65,66.58A4.52,4.52,0,0,1,79,68.79a12.55,12.55,0,0,1-3.54,1,2.7,2.7,0,0,0-2.86,2.63c-.24,1.68-.75,1.92-2.47,1.78A10.26,10.26,0,0,1,68.88,74c-3.36-.59-6.53-.25-9.3,2a20.13,20.13,0,0,1-1.72,1.18c-4.72,3.06-9.55,3.42-14.48.54C42,76.94,40.76,76,39.46,75.18a8.65,8.65,0,0,0-3.53-1.29,22.64,22.64,0,0,0-6,.37c-1,.11-2-.18-2.07-1.24-.14-2.55-1.7-3.17-3.84-3.4a11,11,0,0,1-2.92-.91,4.3,4.3,0,0,1-2.46-2.13v-1a2.62,2.62,0,0,1,1.49-1c5.17-1,8.62-4.31,11.23-8.64,2.19-3.63,1.84-4.47-2.2-5.9-.23-.08-.47-.15-.69-.24A8.48,8.48,0,0,1,26,48.45c-1.81-1.57-.74-3.83,1.39-4.35,1.56-.37,2.92.63,4.43.82,1,.12,1.42-.22,1.29-1.29A51.77,51.77,0,0,1,33,35.28a14.11,14.11,0,0,1,7.29-12A18.38,18.38,0,0,1,60,23.24a14.07,14.07,0,0,1,7.26,10.82,48.13,48.13,0,0,1,0,9.45c-.11,1.37.17,1.62,1.53,1.3,1.67-.39,3.08-1.25,4.83-.49a2.66,2.66,0,0,1,1.72,2.32,2.58,2.58,0,0,1-1,1.8,9.74,9.74,0,0,1-2.84,1.48c-.76.31-1.55.55-2.28.9-1.53.71-2,1.66-1.25,3.17,2.47,5.22,6.1,9.19,12,10.57a2.81,2.81,0,0,1,1.72,1Z"/></svg>